<svg width="92" height="30" viewBox="0 0 92 30" fill="none" xmlns="http://www.w3.org/2000/svg">
<path d="M1.824 24V7.2H4.584V24H1.824ZM3.72 16.8V14.28H12.264V16.8H3.72ZM3.72 9.72V7.2H12.672V9.72H3.72ZM15.0578 24V12.48H17.6978V24H15.0578ZM17.6978 17.592L16.7858 17.136C16.7858 15.68 17.1058 14.504 17.7458 13.608C18.4018 12.696 19.3858 12.24 20.6978 12.24C21.2738 12.24 21.7938 12.344 22.2578 12.552C22.7218 12.76 23.1538 13.096 23.5538 13.56L21.8258 15.336C21.6178 15.112 21.3858 14.952 21.1298 14.856C20.8738 14.76 20.5778 14.712 20.2418 14.712C19.5058 14.712 18.8978 14.944 18.4178 15.408C17.9378 15.872 17.6978 16.6 17.6978 17.592ZM24.8552 24V12.48H27.4952V24H24.8552ZM26.1752 10.368C25.7272 10.368 25.3512 10.216 25.0472 9.912C24.7592 9.608 24.6152 9.232 24.6152 8.784C24.6152 8.336 24.7592 7.96 25.0472 7.656C25.3512 7.352 25.7272 7.2 26.1752 7.2C26.6392 7.2 27.0152 7.352 27.3032 7.656C27.5912 7.96 27.7352 8.336 27.7352 8.784C27.7352 9.232 27.5912 9.608 27.3032 9.912C27.0152 10.216 26.6392 10.368 26.1752 10.368ZM35.8082 24.24C34.6562 24.24 33.6162 23.984 32.6882 23.472C31.7762 22.944 31.0482 22.224 30.5042 21.312C29.9762 20.4 29.7122 19.376 29.7122 18.24C29.7122 17.104 29.9762 16.088 30.5042 15.192C31.0322 14.28 31.7442 13.56 32.6402 13.032C33.5522 12.504 34.5602 12.24 35.6642 12.24C36.7362 12.24 37.6802 12.488 38.4962 12.984C39.3282 13.48 39.9762 14.16 40.4402 15.024C40.9202 15.888 41.1602 16.872 41.1602 17.976C41.1602 18.168 41.1442 18.368 41.1122 18.576C41.0962 18.768 41.0642 18.984 41.0162 19.224H31.5602V17.064H39.6482L38.6642 17.928C38.6322 17.224 38.4962 16.632 38.2562 16.152C38.0162 15.672 37.6722 15.304 37.2242 15.048C36.7922 14.792 36.2562 14.664 35.6162 14.664C34.9442 14.664 34.3602 14.808 33.8642 15.096C33.3682 15.384 32.9842 15.792 32.7122 16.32C32.4402 16.832 32.3042 17.448 32.3042 18.168C32.3042 18.888 32.4482 19.52 32.7362 20.064C33.0242 20.608 33.4322 21.032 33.9602 21.336C34.4882 21.624 35.0962 21.768 35.7842 21.768C36.3762 21.768 36.9202 21.664 37.4162 21.456C37.9282 21.248 38.3602 20.944 38.7122 20.544L40.3922 22.248C39.8322 22.904 39.1522 23.4 38.3522 23.736C37.5522 24.072 36.7042 24.24 35.8082 24.24ZM51.1725 24V17.352C51.1725 16.584 50.9245 15.952 50.4285 15.456C49.9485 14.96 49.3245 14.712 48.5565 14.712C48.0445 14.712 47.5885 14.824 47.1885 15.048C46.7885 15.272 46.4765 15.584 46.2525 15.984C46.0285 16.384 45.9165 16.84 45.9165 17.352L44.8845 16.776C44.8845 15.896 45.0765 15.12 45.4605 14.448C45.8445 13.76 46.3725 13.224 47.0445 12.84C47.7325 12.44 48.5005 12.24 49.3485 12.24C50.2125 12.24 50.9805 12.464 51.6525 12.912C52.3245 13.344 52.8525 13.912 53.2365 14.616C53.6205 15.304 53.8125 16.024 53.8125 16.776V24H51.1725ZM43.2765 24V12.48H45.9165V24H43.2765ZM61.3193 24.24C60.2793 24.24 59.3353 23.976 58.4873 23.448C57.6553 22.92 56.9913 22.208 56.4953 21.312C56.0153 20.4 55.7753 19.384 55.7753 18.264C55.7753 17.128 56.0153 16.112 56.4953 15.216C56.9913 14.304 57.6553 13.584 58.4873 13.056C59.3353 12.512 60.2793 12.24 61.3193 12.24C62.1993 12.24 62.9753 12.432 63.6473 12.816C64.3353 13.184 64.8793 13.696 65.2793 14.352C65.6793 15.008 65.8793 15.752 65.8793 16.584V19.896C65.8793 20.728 65.6793 21.472 65.2793 22.128C64.8953 22.784 64.3593 23.304 63.6713 23.688C62.9833 24.056 62.1993 24.24 61.3193 24.24ZM61.7513 21.744C62.4073 21.744 62.9753 21.6 63.4553 21.312C63.9513 21.008 64.3353 20.592 64.6073 20.064C64.8793 19.536 65.0153 18.928 65.0153 18.24C65.0153 17.552 64.8793 16.944 64.6073 16.416C64.3353 15.888 63.9513 15.48 63.4553 15.192C62.9753 14.888 62.4073 14.736 61.7513 14.736C61.1113 14.736 60.5433 14.888 60.0473 15.192C59.5673 15.48 59.1833 15.888 58.8953 16.416C58.6233 16.944 58.4873 17.552 58.4873 18.24C58.4873 18.928 58.6233 19.536 58.8953 20.064C59.1833 20.592 59.5673 21.008 60.0473 21.312C60.5433 21.6 61.1113 21.744 61.7513 21.744ZM67.4873 24H64.8473V20.904L65.3033 18.096L64.8473 15.312V6.72H67.4873V24ZM70.2491 24V12.336H73.9211V24H70.2491ZM73.9211 17.592L72.3851 16.392C72.6891 15.032 73.2011 13.976 73.9211 13.224C74.6411 12.472 75.6411 12.096 76.9211 12.096C77.4811 12.096 77.9691 12.184 78.3851 12.36C78.8171 12.52 79.1931 12.776 79.5131 13.128L77.3291 15.888C77.1691 15.712 76.9691 15.576 76.7291 15.48C76.4891 15.384 76.2171 15.336 75.9131 15.336C75.3051 15.336 74.8171 15.528 74.4491 15.912C74.0971 16.28 73.9211 16.84 73.9211 17.592ZM83.9976 24.048L79.1976 12.336H83.1576L86.2056 21.624H84.7416L87.8616 12.336H91.8216L86.8296 24.048H83.9976ZM80.9976 28.92L84.5016 21.36L86.8296 24.048L84.7656 28.92H80.9976Z" fill="black"/>
<line x1="1.99719" y1="26" x2="91.0028" y2="26" stroke="#FFFF01"/>
</svg>
